<svg width="48" height="48" viewBox="0 0 48 48" fill="none" xmlns="http://www.w3.org/2000/svg">
<rect width="48" height="48" rx="24" fill="#437EF7"/>
<path d="M24 10.6665C18.8453 10.6665 14.6667 14.8452 14.6667 19.9998C14.6667 21.3812 14.9676 22.696 15.5089 23.879C15.8459 24.6158 16.2279 25.3401 16.593 26.0297L16.6329 26.105C16.9895 26.7784 17.329 27.4196 17.6316 28.0645C18.2601 29.4046 18.6667 30.6371 18.6667 31.8806C18.6667 32.6828 19.317 33.3332 20.1192 33.3332H27.8808C28.683 33.3332 29.3333 32.6828 29.3333 31.8806C29.3333 30.6371 29.7399 29.4046 30.3685 28.0645C30.671 27.4196 31.0105 26.7784 31.3671 26.1051L31.407 26.0297C31.7721 25.3401 32.1541 24.6158 32.4912 23.879C33.0324 22.696 33.3333 21.3812 33.3333 19.9998C33.3333 14.8452 29.1547 10.6665 24 10.6665Z" fill="white"/>
<path d="M20 34.6665C19.2636 34.6665 18.6667 35.2635 18.6667 35.9998C18.6667 36.7362 19.2636 37.3332 20 37.3332H28C28.7364 37.3332 29.3333 36.7362 29.3333 35.9998C29.3333 35.2635 28.7364 34.6665 28 34.6665H20Z" fill="white"/>
</svg>
