<svg width="48" height="48" viewBox="0 0 48 48" fill="none" xmlns="http://www.w3.org/2000/svg">
<rect width="48" height="48" rx="24" fill="#437EF7"/>
<path fill-rule="evenodd" clip-rule="evenodd" d="M9.33331 23.9997C9.33331 15.8995 15.8998 9.33301 24 9.33301C32.1002 9.33301 38.6666 15.8995 38.6666 23.9997C38.6666 32.0998 32.1002 38.6663 24 38.6663C15.8998 38.6663 9.33331 32.0998 9.33331 23.9997ZM24 13.333C24.7364 13.333 25.3333 13.93 25.3333 14.6663V19.8515C25.3333 20.5879 24.7364 21.1849 24 21.1849C23.2636 21.1849 22.6666 20.5879 22.6666 19.8515V14.6663C22.6666 13.93 23.2636 13.333 24 13.333ZM33.3333 25.333C34.0697 25.333 34.6666 24.7361 34.6666 23.9997C34.6666 23.2633 34.0697 22.6663 33.3333 22.6663H28.1481C27.4117 22.6663 26.8148 23.2633 26.8148 23.9997C26.8148 24.7361 27.4117 25.333 28.1481 25.333H33.3333ZM24 26.8145C24.7364 26.8145 25.3333 27.4114 25.3333 28.1478V33.333C25.3333 34.0694 24.7364 34.6663 24 34.6663C23.2636 34.6663 22.6666 34.0694 22.6666 33.333V28.1478C22.6666 27.4114 23.2636 26.8145 24 26.8145ZM19.8518 25.333C20.5882 25.333 21.1852 24.7361 21.1852 23.9997C21.1852 23.2633 20.5882 22.6663 19.8518 22.6663H14.6666C13.9303 22.6663 13.3333 23.2633 13.3333 23.9997C13.3333 24.7361 13.9303 25.333 14.6666 25.333H19.8518Z" fill="white"/>
</svg>
