<svg width="48" height="48" viewBox="0 0 48 48" fill="none" xmlns="http://www.w3.org/2000/svg">
<rect width="48" height="48" rx="24" fill="#437EF7"/>
<path d="M32 19.9997C34.9455 19.9997 37.3333 17.6119 37.3333 14.6663C37.3333 11.7208 34.9455 9.33301 32 9.33301C29.0544 9.33301 26.6666 11.7208 26.6666 14.6663C26.6666 15.1693 26.7362 15.656 26.8664 16.1173L19.7887 20.246C18.8222 19.2705 17.4816 18.6663 16 18.6663C13.0544 18.6663 10.6666 21.0542 10.6666 23.9997C10.6666 26.9452 13.0544 29.333 16 29.333C17.4816 29.333 18.8222 28.7288 19.7887 27.7534L26.8664 31.882C26.7362 32.3433 26.6666 32.83 26.6666 33.333C26.6666 36.2785 29.0544 38.6663 32 38.6663C34.9455 38.6663 37.3333 36.2785 37.3333 33.333C37.3333 30.3875 34.9455 27.9997 32 27.9997C30.5183 27.9997 29.1777 28.6039 28.2113 29.5793L21.1335 25.4507C21.2637 24.9893 21.3333 24.5026 21.3333 23.9997C21.3333 23.4967 21.2637 23.01 21.1335 22.5487L28.2113 18.42C29.1777 19.3955 30.5183 19.9997 32 19.9997Z" fill="white"/>
</svg>
