<svg width="48" height="48" viewBox="0 0 48 48" fill="none" xmlns="http://www.w3.org/2000/svg">
<rect width="48" height="48" rx="24" fill="#437EF7"/>
<path d="M10.0759 19.3796C9.59414 20.8322 9.33333 22.3856 9.33333 23.9999C9.33333 29.5391 12.404 34.3611 16.9359 36.8565L22.2447 24.6889L10.0759 19.3796Z" fill="white"/>
<path d="M11.1434 16.9359L22.6667 21.9636V9.39307C17.6936 9.84121 13.4364 12.7717 11.1434 16.9359Z" fill="white"/>
<path d="M24 38.6666C22.3857 38.6666 20.8323 38.4058 19.3796 37.924L25.2107 24.5593C25.2516 24.4708 25.2832 24.377 25.304 24.2793C25.3262 24.1764 25.3357 24.0727 25.3333 23.9702V9.39307C32.8087 10.0667 38.6667 16.3492 38.6667 23.9999C38.6667 32.1001 32.1002 38.6666 24 38.6666Z" fill="white"/>
</svg>
